<?xml version="1.0" encoding="utf-8"?>
<!-- Generator: Adobe Illustrator 27.3.1, SVG Export Plug-In . SVG Version: 6.00 Build 0)  -->
<svg version="1.1" id="Layer_1" xmlns="http://www.w3.org/2000/svg" xmlns:xlink="http://www.w3.org/1999/xlink" x="0px" y="0px"
	 viewBox="0 0 684 296" style="enable-background:new 0 0 684 296;" xml:space="preserve">
<style type="text/css">
	.st0{fill:#FFFFFF;}
	.st1{fill:#089949;}
</style>
<g>
	<g>
		<path d="M310.2,140.8h38.7c37.5,0,60.3,19.5,60.3,57.8c0,37.4-24,57.1-60.5,57.1h-38.5V140.8z M348.2,238.3
			c26.8,0,37.8-15.5,37.8-40.7c0-25.9-11.7-39.5-38.1-39.5h-15.4v80.2H348.2z"/>
		<path d="M501.2,237.4c-7,14.8-22.1,19.9-37.5,19.9c-26.5,0-43.2-17.7-43.2-43.9c0-24.6,17-43.6,42.3-43.6
			c27.2,0,40.4,15.9,40.4,48.3h-62.2c0,14.2,8.2,24.6,23.5,24.6c9.1,0,16.6-3.7,21-12.2L501.2,237.4z M483.1,204.9
			c-0.6-12.7-8.3-20.5-20.2-20.5c-12.6,0-20,8.9-21.7,20.5H483.1z"/>
		<path d="M528.5,230.6c3.1,8.2,11.7,12.2,20.8,12.2c6.5,0,14.6-2,14.6-10c0-8.4-9.1-10.4-19.5-12.6c-13.5-2.8-28.6-6.1-28.6-25
			c0-17.3,16.1-25.5,31.3-25.5c13.3,0,28.6,5,34.1,18.3l-14.9,6.4c-3.3-7.5-11.5-10.3-18.4-10.3c-6.7,0-13.1,2.7-13.1,9.5
			c0,7.7,8.2,9.3,18.4,11.3c13.7,2.7,30.1,5.8,30.1,25.4c0,19.8-16.6,26.8-34.1,26.8c-14.8,0-30.8-5-36-20.1L528.5,230.6z"/>
		<path d="M599.2,133.6h20.1v74.7l30.4-36.6h22.1l-33.4,38.5l35.9,45.5h-23.2l-31.9-41v41h-20.1V133.6z"/>
	</g>
	<g>
		<path d="M310.4,104.4l37-53.4h-33.2V40.5h50.6v5.2l-36.1,53.4h35v10.5h-53.3V104.4z"/>
		<path d="M396.4,58c15.4,0,27.2,10.8,27.2,26.3c0,15.9-12.4,26.4-27.7,26.4c-15.4,0-27.8-10.7-27.8-26.1
			C368.1,68.6,381.2,58,396.4,58z M410.6,84.3c0-9.3-4.7-17.1-14.7-17.1c-10.2,0-14.3,8.1-14.3,17.4c0,9,4.8,16.6,14.6,16.6
			C406.3,101.3,410.6,93.2,410.6,84.3z"/>
		<path d="M432.4,36.1h12.1v31c3.3-6.3,9.9-9.1,16.9-9.1c12.1,0,18.2,8.5,18.2,20v31.7h-12.2V79.2c0-7.3-3.8-11.3-10.8-11.3
			c-7.8,0-12.1,4.8-12.1,12v29.7h-12.1V36.1z"/>
		<path d="M515.8,58c15.4,0,27.2,10.8,27.2,26.3c0,15.9-12.4,26.4-27.7,26.4c-15.4,0-27.8-10.7-27.8-26.1
			C487.5,68.6,500.6,58,515.8,58z M530,84.3c0-9.3-4.7-17.1-14.7-17.1c-10.2,0-14.3,8.1-14.3,17.4c0,9,4.8,16.6,14.6,16.6
			C525.7,101.3,530,93.2,530,84.3z"/>
	</g>
</g>
<g>
	<path class="st1" d="M22.3,293c-1.6,0-3.3-0.5-4.7-1.4c-2.8-1.8-4.2-5.1-3.7-8.4l24.3-149.3c1.3-8,5.4-15.2,11.5-20.4
		c6.1-5.2,14-8.1,22-8.1h100.1l5.6-34.3H168c-4.2,0-8.1-1.8-10.8-5c-2.7-3.2-3.9-7.3-3.2-11.4l6.4-39.7c1.1-6.9,7-11.9,14-11.9h37.3
		c10,0,19.4,4.4,25.9,12s9.3,17.6,7.7,27.5l-15,92.4c-0.7,4-3,7.6-6.5,9.8L140,196.5c-5.1,3.1-11.6,2.8-16.3-1l-39-31.1
		c-3.7-2.9-4.3-8.3-1.3-11.9c2.9-3.7,8.3-4.3,11.9-1.3l37.5,29.9l81-50.2l14.8-91.1c0.8-4.9-0.6-9.9-3.8-13.7c-3.2-3.8-7.9-6-12.9-6
		h-34.9l-5.5,34h9.3c4.2,0,8.1,1.8,10.8,5c2.7,3.2,3.9,7.3,3.2,11.4l-6.5,39.9c-1.1,6.9-7,11.9-14,11.9H71.7
		c-8.4,0-15.4,6-16.8,14.3L33.6,267.5L63.5,249c2.2-1.4,4.8-2.1,7.5-2.1h109.5c8.4,0,15.4-6,16.8-14.3l6.8-41.9
		c0.8-4.6,5.1-7.8,9.7-7c4.6,0.8,7.8,5.1,7,9.7l-6.8,41.9c-1.3,8-5.4,15.2-11.5,20.4c-6.1,5.2-14,8.1-22,8.1H71.7l-45,27.9
		C25.4,292.6,23.8,293,22.3,293z"/>
</g>
</svg>
