<?xml version="1.0" encoding="utf-8"?>
<!-- Generator: Adobe Illustrator 24.0.0, SVG Export Plug-In . SVG Version: 6.00 Build 0)  -->
<svg version="1.1" id="Layer_1" xmlns="http://www.w3.org/2000/svg" xmlns:xlink="http://www.w3.org/1999/xlink" x="0px" y="0px"
	 viewBox="0 0 1024 1024" style="enable-background:new 0 0 1024 1024;" xml:space="preserve">
<style type="text/css">
	.st0{fill:#089949;}
	.st1{fill:#FFFFFF;}
</style>
<g>
	<path class="st0" d="M132.37,1024c-5.81,0-11.62-1.69-16.65-5.05c-9.78-6.53-14.84-18.16-12.96-29.76l85.68-527.31
		c4.56-28.09,19.02-53.72,40.7-72.16s49.29-28.6,77.75-28.6H660.2l19.74-121.02H647c-14.69,0-28.57-6.42-38.08-17.6
		c-9.52-11.19-13.62-25.91-11.27-40.41l22.74-140.1C624.33,17.66,645.09,0,669.74,0h131.87c35.25,0,68.57,15.4,91.41,42.25
		c22.84,26.85,32.69,62.21,27.04,97l-53.04,326.22c-2.32,14.29-10.71,26.86-23.02,34.48L548.29,683.17
		c-17.91,11.1-41.02,9.73-57.5-3.4L352.94,569.89c-12.96-10.33-15.09-29.2-4.76-42.16c10.33-12.96,29.2-15.09,42.16-4.76
		l132.34,105.49l285.85-177.1l52.3-321.73c2.83-17.4-2.1-35.08-13.52-48.5C835.9,67.7,819.24,60,801.61,60H678.25l-19.5,120.1h32.96
		c14.69,0,28.58,6.42,38.1,17.62s13.62,25.93,11.25,40.43l-23,141.02c-3.96,24.31-24.72,41.95-49.35,41.95H306.88
		c-29.57,0-54.48,21.19-59.22,50.38l-75.12,462.3l105.36-65.3c7.92-4.91,17.03-7.5,26.34-7.5h386.66
		c29.57,0,54.48-21.19,59.22-50.38l24.06-148.05c2.66-16.35,18.07-27.46,34.42-24.8c16.35,2.66,27.46,18.07,24.8,34.42
		l-24.06,148.05c-4.57,28.09-19.02,53.72-40.7,72.16C746.97,910.85,719.35,921,690.89,921H307.09l-158.91,98.5
		C143.33,1022.5,137.84,1024,132.37,1024z"/>
</g>
</svg>
